<svg width="236" height="108" viewBox="0 0 236 108" fill="none" xmlns="http://www.w3.org/2000/svg">
<g filter="url(#filter0_d)">
<path fill-rule="evenodd" clip-rule="evenodd" d="M10 4C10 6.20914 8.20914 8 6 8C3.79086 8 2 6.20914 2 4C2 1.79086 3.79086 0 6 0C8.20914 0 10 1.79086 10 4ZM6 72C8.20914 72 10 70.2091 10 68C10 65.7909 8.20914 64 6 64C3.79086 64 2 65.7909 2 68C2 70.2091 3.79086 72 6 72ZM38 72C40.2091 72 42 70.2091 42 68C42 65.7909 40.2091 64 38 64C35.7909 64 34 65.7909 34 68C34 70.2091 35.7909 72 38 72ZM74 68C74 70.2091 72.2091 72 70 72C67.7909 72 66 70.2091 66 68C66 65.7909 67.7909 64 70 64C72.2091 64 74 65.7909 74 68ZM102 72C104.209 72 106 70.2091 106 68C106 65.7909 104.209 64 102 64C99.7909 64 98 65.7909 98 68C98 70.2091 99.7909 72 102 72ZM138 68C138 70.2091 136.209 72 134 72C131.791 72 130 70.2091 130 68C130 65.7909 131.791 64 134 64C136.209 64 138 65.7909 138 68ZM166 72C168.209 72 170 70.2091 170 68C170 65.7909 168.209 64 166 64C163.791 64 162 65.7909 162 68C162 70.2091 163.791 72 166 72ZM202 68C202 70.2091 200.209 72 198 72C195.791 72 194 70.2091 194 68C194 65.7909 195.791 64 198 64C200.209 64 202 65.7909 202 68ZM230 72C232.209 72 234 70.2091 234 68C234 65.7909 232.209 64 230 64C227.791 64 226 65.7909 226 68C226 70.2091 227.791 72 230 72ZM10 100C10 102.209 8.20914 104 6 104C3.79086 104 2 102.209 2 100C2 97.7909 3.79086 96 6 96C8.20914 96 10 97.7909 10 100ZM38 104C40.2091 104 42 102.209 42 100C42 97.7909 40.2091 96 38 96C35.7909 96 34 97.7909 34 100C34 102.209 35.7909 104 38 104ZM74 100C74 102.209 72.2091 104 70 104C67.7909 104 66 102.209 66 100C66 97.7909 67.7909 96 70 96C72.2091 96 74 97.7909 74 100ZM102 104C104.209 104 106 102.209 106 100C106 97.7909 104.209 96 102 96C99.7909 96 98 97.7909 98 100C98 102.209 99.7909 104 102 104ZM138 100C138 102.209 136.209 104 134 104C131.791 104 130 102.209 130 100C130 97.7909 131.791 96 134 96C136.209 96 138 97.7909 138 100ZM166 104C168.209 104 170 102.209 170 100C170 97.7909 168.209 96 166 96C163.791 96 162 97.7909 162 100C162 102.209 163.791 104 166 104ZM202 100C202 102.209 200.209 104 198 104C195.791 104 194 102.209 194 100C194 97.7909 195.791 96 198 96C200.209 96 202 97.7909 202 100ZM230 104C232.209 104 234 102.209 234 100C234 97.7909 232.209 96 230 96C227.791 96 226 97.7909 226 100C226 102.209 227.791 104 230 104ZM38 8C40.2091 8 42 6.20914 42 4C42 1.79086 40.2091 0 38 0C35.7909 0 34 1.79086 34 4C34 6.20914 35.7909 8 38 8ZM74 4C74 6.20914 72.2091 8 70 8C67.7909 8 66 6.20914 66 4C66 1.79086 67.7909 0 70 0C72.2091 0 74 1.79086 74 4ZM102 8C104.209 8 106 6.20914 106 4C106 1.79086 104.209 0 102 0C99.7909 0 98 1.79086 98 4C98 6.20914 99.7909 8 102 8ZM138 4C138 6.20914 136.209 8 134 8C131.791 8 130 6.20914 130 4C130 1.79086 131.791 0 134 0C136.209 0 138 1.79086 138 4ZM166 8C168.209 8 170 6.20914 170 4C170 1.79086 168.209 0 166 0C163.791 0 162 1.79086 162 4C162 6.20914 163.791 8 166 8ZM202 4C202 6.20914 200.209 8 198 8C195.791 8 194 6.20914 194 4C194 1.79086 195.791 0 198 0C200.209 0 202 1.79086 202 4ZM230 8C232.209 8 234 6.20914 234 4C234 1.79086 232.209 0 230 0C227.791 0 226 1.79086 226 4C226 6.20914 227.791 8 230 8ZM10 36C10 38.2091 8.20914 40 6 40C3.79086 40 2 38.2091 2 36C2 33.7909 3.79086 32 6 32C8.20914 32 10 33.7909 10 36ZM38 40C40.2091 40 42 38.2091 42 36C42 33.7909 40.2091 32 38 32C35.7909 32 34 33.7909 34 36C34 38.2091 35.7909 40 38 40ZM74 36C74 38.2091 72.2091 40 70 40C67.7909 40 66 38.2091 66 36C66 33.7909 67.7909 32 70 32C72.2091 32 74 33.7909 74 36ZM102 40C104.209 40 106 38.2091 106 36C106 33.7909 104.209 32 102 32C99.7909 32 98 33.7909 98 36C98 38.2091 99.7909 40 102 40ZM138 36C138 38.2091 136.209 40 134 40C131.791 40 130 38.2091 130 36C130 33.7909 131.791 32 134 32C136.209 32 138 33.7909 138 36ZM166 40C168.209 40 170 38.2091 170 36C170 33.7909 168.209 32 166 32C163.791 32 162 33.7909 162 36C162 38.2091 163.791 40 166 40ZM202 36C202 38.2091 200.209 40 198 40C195.791 40 194 38.2091 194 36C194 33.7909 195.791 32 198 32C200.209 32 202 33.7909 202 36ZM230 40C232.209 40 234 38.2091 234 36C234 33.7909 232.209 32 230 32C227.791 32 226 33.7909 226 36C226 38.2091 227.791 40 230 40Z" fill="#16ABD3"/>
</g>
<defs>
<filter id="filter0_d" x="0" y="0" width="236" height="108" filterUnits="userSpaceOnUse" color-interpolation-filters="sRGB">
<feFlood flood-opacity="0" result="BackgroundImageFix"/>
<feColorMatrix in="SourceAlpha" type="matrix" values="0 0 0 0 0 0 0 0 0 0 0 0 0 0 0 0 0 0 127 0"/>
<feOffset dy="2"/>
<feGaussianBlur stdDeviation="1"/>
<feColorMatrix type="matrix" values="0 0 0 0 0 0 0 0 0 0 0 0 0 0 0 0 0 0 0.25 0"/>
<feBlend mode="normal" in2="BackgroundImageFix" result="effect1_dropShadow"/>
<feBlend mode="normal" in="SourceGraphic" in2="effect1_dropShadow" result="shape"/>
</filter>
</defs>
</svg>
