<svg width="88" height="69" viewBox="0 0 88 69" fill="none" xmlns="http://www.w3.org/2000/svg">
<g id="&#226;&#128;&#156;" filter="url(#filter0_d)">
<path id="&#226;&#128;&#156;_2" fill-rule="evenodd" clip-rule="evenodd" d="M35.3711 53.0327C32.5484 55.6776 28.8183 57 24.1809 57C19.4427 57 15.7126 55.525 12.9906 52.5749C10.2687 49.6249 8.90771 45.4541 8.90771 40.0627C8.90771 36.4005 9.76463 32.2298 11.4784 27.5504C13.1923 22.871 15.4858 18.1916 18.3589 13.5123C21.2321 8.83288 24.5337 4.66213 28.2638 1H39.9077C38.1939 5.06903 36.8833 8.78202 35.976 12.139C35.0687 15.4959 34.615 18.5477 34.615 21.2943C34.615 24.4478 35.0183 27.1435 35.8248 29.3815C36.6313 31.6194 37.463 33.8065 38.3199 35.9428C39.1768 38.079 39.6053 40.6222 39.6053 43.5722C39.6053 47.2343 38.1939 50.3878 35.3711 53.0327ZM71.3712 53.0327C68.5485 55.6776 64.8184 57 60.181 57C55.4428 57 51.7127 55.525 48.9907 52.5749C46.2688 49.6249 44.9078 45.4541 44.9078 40.0627C44.9078 36.4005 45.7647 32.2298 47.4785 27.5504C49.1924 22.871 51.4859 18.1916 54.359 13.5123C57.2322 8.83288 60.5338 4.66213 64.2639 1H75.9078C74.194 5.06903 72.8834 8.78202 71.9761 12.139C71.0688 15.4959 70.6151 18.5477 70.6151 21.2943C70.6151 24.4478 71.0184 27.1435 71.8249 29.3815C72.6314 31.6194 73.4631 33.8065 74.32 35.9428C75.1769 38.079 75.6054 40.6222 75.6054 43.5722C75.6054 47.2343 74.194 50.3878 71.3712 53.0327Z" fill="#FF8B00"/>
</g>
<defs>
<filter id="filter0_d" x="0.907715" y="-7" width="87.0001" height="76" filterUnits="userSpaceOnUse" color-interpolation-filters="sRGB">
<feFlood flood-opacity="0" result="BackgroundImageFix"/>
<feColorMatrix in="SourceAlpha" type="matrix" values="0 0 0 0 0 0 0 0 0 0 0 0 0 0 0 0 0 0 127 0"/>
<feOffset dx="2" dy="2"/>
<feGaussianBlur stdDeviation="5"/>
<feColorMatrix type="matrix" values="0 0 0 0 1 0 0 0 0 0.6 0 0 0 0 0 0 0 0 0.54 0"/>
<feBlend mode="normal" in2="BackgroundImageFix" result="effect1_dropShadow"/>
<feBlend mode="normal" in="SourceGraphic" in2="effect1_dropShadow" result="shape"/>
</filter>
</defs>
</svg>
